<mxfile host="app.diagrams.net" modified="2021-11-29T08:30:02.039Z" agent="5.0 (X11; Linux x86_64) AppleWebKit/537.36 (KHTML, like Gecko) Chrome/95.0.4638.54 Safari/537.36" etag="AkKwNCPXINMVWy6R22oq" version="15.8.6" type="github">
  <diagram name="Page-1" id="c7488fd3-1785-93aa-aadb-54a6760d102a">
    <mxGraphModel dx="1350" dy="805" grid="1" gridSize="10" guides="1" tooltips="1" connect="1" arrows="1" fold="1" page="1" pageScale="1" pageWidth="1100" pageHeight="850" background="none" math="0" shadow="0">
      <root>
        <mxCell id="0" />
        <mxCell id="1" parent="0" />
        <mxCell id="2b4e8129b02d487f-1" value="TCAD" style="swimlane;html=1;childLayout=stackLayout;horizontal=1;startSize=20;horizontalStack=0;rounded=0;shadow=0;labelBackgroundColor=none;strokeWidth=1;fontFamily=Verdana;fontSize=8;align=center;" parent="1" vertex="1">
          <mxGeometry x="180" y="72" width="680" height="620" as="geometry" />
        </mxCell>
        <mxCell id="2b4e8129b02d487f-2" value="登录鉴权" style="swimlane;html=1;startSize=20;horizontal=0;" parent="2b4e8129b02d487f-1" vertex="1">
          <mxGeometry y="20" width="680" height="150" as="geometry" />
        </mxCell>
        <mxCell id="2b4e8129b02d487f-18" style="edgeStyle=orthogonalEdgeStyle;rounded=0;html=1;labelBackgroundColor=none;startArrow=none;startFill=0;startSize=5;endArrow=classicThin;endFill=1;endSize=5;jettySize=auto;orthogonalLoop=1;strokeWidth=1;fontFamily=Verdana;fontSize=8" parent="2b4e8129b02d487f-2" source="2b4e8129b02d487f-5" target="2b4e8129b02d487f-6" edge="1">
          <mxGeometry relative="1" as="geometry" />
        </mxCell>
        <mxCell id="2b4e8129b02d487f-5" value="start" style="ellipse;whiteSpace=wrap;html=1;rounded=0;shadow=0;labelBackgroundColor=none;strokeWidth=1;fontFamily=Verdana;fontSize=8;align=center;" parent="2b4e8129b02d487f-2" vertex="1">
          <mxGeometry x="60" y="60" width="30" height="30" as="geometry" />
        </mxCell>
        <mxCell id="sPJk-Jh3IWkGkgqyDpI6-32" value="" style="edgeStyle=orthogonalEdgeStyle;rounded=0;orthogonalLoop=1;jettySize=auto;html=1;" edge="1" parent="2b4e8129b02d487f-2" source="2b4e8129b02d487f-6" target="2b4e8129b02d487f-7">
          <mxGeometry relative="1" as="geometry" />
        </mxCell>
        <mxCell id="2b4e8129b02d487f-6" value="登录" style="rounded=1;whiteSpace=wrap;html=1;shadow=0;labelBackgroundColor=none;strokeWidth=1;fontFamily=Verdana;fontSize=8;align=center;" parent="2b4e8129b02d487f-2" vertex="1">
          <mxGeometry x="141" y="56.49999999999997" width="70" height="37" as="geometry" />
        </mxCell>
        <mxCell id="2b4e8129b02d487f-20" style="edgeStyle=orthogonalEdgeStyle;rounded=0;html=1;labelBackgroundColor=none;startArrow=none;startFill=0;startSize=5;endArrow=classicThin;endFill=1;endSize=5;jettySize=auto;orthogonalLoop=1;strokeWidth=1;fontFamily=Verdana;fontSize=8" parent="2b4e8129b02d487f-2" source="sPJk-Jh3IWkGkgqyDpI6-33" target="2b4e8129b02d487f-8" edge="1">
          <mxGeometry relative="1" as="geometry" />
        </mxCell>
        <mxCell id="sPJk-Jh3IWkGkgqyDpI6-35" value="No" style="edgeLabel;html=1;align=center;verticalAlign=middle;resizable=0;points=[];" vertex="1" connectable="0" parent="2b4e8129b02d487f-20">
          <mxGeometry x="-0.1111" y="-3" relative="1" as="geometry">
            <mxPoint as="offset" />
          </mxGeometry>
        </mxCell>
        <mxCell id="2b4e8129b02d487f-7" value="验证，鉴权" style="rounded=1;whiteSpace=wrap;html=1;shadow=0;labelBackgroundColor=none;strokeWidth=1;fontFamily=Verdana;fontSize=8;align=center;" parent="2b4e8129b02d487f-2" vertex="1">
          <mxGeometry x="240" y="56.49999999999997" width="70" height="37" as="geometry" />
        </mxCell>
        <mxCell id="2b4e8129b02d487f-8" value="end" style="ellipse;whiteSpace=wrap;html=1;rounded=0;shadow=0;labelBackgroundColor=none;strokeWidth=2;fontFamily=Verdana;fontSize=8;align=center;" parent="2b4e8129b02d487f-2" vertex="1">
          <mxGeometry x="620" y="60" width="30" height="30" as="geometry" />
        </mxCell>
        <mxCell id="sPJk-Jh3IWkGkgqyDpI6-33" value="" style="strokeWidth=1;html=1;shape=mxgraph.flowchart.decision;whiteSpace=wrap;rounded=1;shadow=0;labelBackgroundColor=none;fontFamily=Verdana;fontSize=8;align=center;" vertex="1" parent="2b4e8129b02d487f-2">
          <mxGeometry x="485" y="59.999999999999886" width="30" height="30" as="geometry" />
        </mxCell>
        <mxCell id="sPJk-Jh3IWkGkgqyDpI6-34" value="" style="edgeStyle=orthogonalEdgeStyle;rounded=0;html=1;labelBackgroundColor=none;startArrow=none;startFill=0;startSize=5;endArrow=none;endFill=1;endSize=5;jettySize=auto;orthogonalLoop=1;strokeWidth=1;fontFamily=Verdana;fontSize=8" edge="1" parent="2b4e8129b02d487f-2" source="2b4e8129b02d487f-7" target="sPJk-Jh3IWkGkgqyDpI6-33">
          <mxGeometry relative="1" as="geometry">
            <mxPoint x="480" y="165" as="sourcePoint" />
            <mxPoint x="521" y="165" as="targetPoint" />
          </mxGeometry>
        </mxCell>
        <mxCell id="2b4e8129b02d487f-3" value="项目管理" style="swimlane;html=1;startSize=20;horizontal=0;" parent="2b4e8129b02d487f-1" vertex="1">
          <mxGeometry y="170" width="680" height="150" as="geometry" />
        </mxCell>
        <mxCell id="sPJk-Jh3IWkGkgqyDpI6-49" value="" style="edgeStyle=orthogonalEdgeStyle;rounded=0;orthogonalLoop=1;jettySize=auto;html=1;" edge="1" parent="2b4e8129b02d487f-3" source="sPJk-Jh3IWkGkgqyDpI6-41" target="sPJk-Jh3IWkGkgqyDpI6-42">
          <mxGeometry relative="1" as="geometry" />
        </mxCell>
        <mxCell id="sPJk-Jh3IWkGkgqyDpI6-41" value="创建项目" style="rounded=1;whiteSpace=wrap;html=1;shadow=0;labelBackgroundColor=none;strokeWidth=1;fontFamily=Verdana;fontSize=8;align=center;" vertex="1" parent="2b4e8129b02d487f-3">
          <mxGeometry x="539" y="61.5" width="70" height="37" as="geometry" />
        </mxCell>
        <mxCell id="sPJk-Jh3IWkGkgqyDpI6-50" value="" style="edgeStyle=orthogonalEdgeStyle;rounded=0;orthogonalLoop=1;jettySize=auto;html=1;" edge="1" parent="2b4e8129b02d487f-3" source="sPJk-Jh3IWkGkgqyDpI6-42" target="sPJk-Jh3IWkGkgqyDpI6-43">
          <mxGeometry relative="1" as="geometry" />
        </mxCell>
        <mxCell id="sPJk-Jh3IWkGkgqyDpI6-42" value="创建&lt;br&gt;项目流程" style="rounded=1;whiteSpace=wrap;html=1;shadow=0;labelBackgroundColor=none;strokeWidth=1;fontFamily=Verdana;fontSize=8;align=center;" vertex="1" parent="2b4e8129b02d487f-3">
          <mxGeometry x="441" y="61.5" width="70" height="37" as="geometry" />
        </mxCell>
        <mxCell id="sPJk-Jh3IWkGkgqyDpI6-51" value="" style="edgeStyle=orthogonalEdgeStyle;rounded=0;orthogonalLoop=1;jettySize=auto;html=1;" edge="1" parent="2b4e8129b02d487f-3" source="sPJk-Jh3IWkGkgqyDpI6-43" target="sPJk-Jh3IWkGkgqyDpI6-45">
          <mxGeometry relative="1" as="geometry" />
        </mxCell>
        <mxCell id="sPJk-Jh3IWkGkgqyDpI6-43" value="创建&lt;br&gt;流程分组" style="rounded=1;whiteSpace=wrap;html=1;shadow=0;labelBackgroundColor=none;strokeWidth=1;fontFamily=Verdana;fontSize=8;align=center;" vertex="1" parent="2b4e8129b02d487f-3">
          <mxGeometry x="341" y="61.5" width="70" height="37" as="geometry" />
        </mxCell>
        <mxCell id="sPJk-Jh3IWkGkgqyDpI6-56" value="" style="edgeStyle=orthogonalEdgeStyle;rounded=0;orthogonalLoop=1;jettySize=auto;html=1;" edge="1" parent="2b4e8129b02d487f-3" source="sPJk-Jh3IWkGkgqyDpI6-45" target="sPJk-Jh3IWkGkgqyDpI6-55">
          <mxGeometry relative="1" as="geometry" />
        </mxCell>
        <mxCell id="sPJk-Jh3IWkGkgqyDpI6-45" value="创建&lt;br&gt;分组项" style="rounded=1;whiteSpace=wrap;html=1;shadow=0;labelBackgroundColor=none;strokeWidth=1;fontFamily=Verdana;fontSize=8;align=center;" vertex="1" parent="2b4e8129b02d487f-3">
          <mxGeometry x="241" y="61.5" width="70" height="37" as="geometry" />
        </mxCell>
        <mxCell id="sPJk-Jh3IWkGkgqyDpI6-57" value="" style="edgeStyle=orthogonalEdgeStyle;rounded=0;orthogonalLoop=1;jettySize=auto;html=1;" edge="1" parent="2b4e8129b02d487f-3" source="sPJk-Jh3IWkGkgqyDpI6-55" target="sPJk-Jh3IWkGkgqyDpI6-54">
          <mxGeometry relative="1" as="geometry" />
        </mxCell>
        <mxCell id="sPJk-Jh3IWkGkgqyDpI6-55" value="设置参数" style="rounded=1;whiteSpace=wrap;html=1;shadow=0;labelBackgroundColor=none;strokeWidth=1;fontFamily=Verdana;fontSize=8;align=center;" vertex="1" parent="2b4e8129b02d487f-3">
          <mxGeometry x="140" y="61.5" width="70" height="37" as="geometry" />
        </mxCell>
        <mxCell id="sPJk-Jh3IWkGkgqyDpI6-54" value="执行仿真" style="rounded=1;whiteSpace=wrap;html=1;shadow=0;labelBackgroundColor=none;strokeWidth=1;fontFamily=Verdana;fontSize=8;align=center;" vertex="1" parent="2b4e8129b02d487f-3">
          <mxGeometry x="40" y="61.5" width="70" height="37" as="geometry" />
        </mxCell>
        <mxCell id="sPJk-Jh3IWkGkgqyDpI6-58" value="" style="endArrow=classic;html=1;rounded=0;exitX=0.5;exitY=1;exitDx=0;exitDy=0;exitPerimeter=0;entryX=1;entryY=0.5;entryDx=0;entryDy=0;" edge="1" parent="2b4e8129b02d487f-1" source="sPJk-Jh3IWkGkgqyDpI6-33" target="sPJk-Jh3IWkGkgqyDpI6-41">
          <mxGeometry width="50" height="50" relative="1" as="geometry">
            <mxPoint x="550" y="230" as="sourcePoint" />
            <mxPoint x="600" y="180" as="targetPoint" />
            <Array as="points">
              <mxPoint x="500" y="160" />
              <mxPoint x="650" y="160" />
              <mxPoint x="650" y="250" />
            </Array>
          </mxGeometry>
        </mxCell>
        <mxCell id="sPJk-Jh3IWkGkgqyDpI6-59" value="Yes" style="edgeLabel;html=1;align=center;verticalAlign=middle;resizable=0;points=[];" vertex="1" connectable="0" parent="sPJk-Jh3IWkGkgqyDpI6-58">
          <mxGeometry x="-0.899" y="1" relative="1" as="geometry">
            <mxPoint as="offset" />
          </mxGeometry>
        </mxCell>
        <mxCell id="sPJk-Jh3IWkGkgqyDpI6-62" value="" style="endArrow=classic;html=1;rounded=0;exitX=0.5;exitY=1;exitDx=0;exitDy=0;entryX=0.5;entryY=0;entryDx=0;entryDy=0;" edge="1" parent="2b4e8129b02d487f-1" source="sPJk-Jh3IWkGkgqyDpI6-54" target="sPJk-Jh3IWkGkgqyDpI6-60">
          <mxGeometry width="50" height="50" relative="1" as="geometry">
            <mxPoint x="110" y="330" as="sourcePoint" />
            <mxPoint x="160" y="280" as="targetPoint" />
          </mxGeometry>
        </mxCell>
        <mxCell id="sPJk-Jh3IWkGkgqyDpI6-79" value="" style="edgeStyle=orthogonalEdgeStyle;rounded=0;orthogonalLoop=1;jettySize=auto;html=1;entryX=0.5;entryY=0;entryDx=0;entryDy=0;" edge="1" parent="2b4e8129b02d487f-1" source="sPJk-Jh3IWkGkgqyDpI6-76" target="sPJk-Jh3IWkGkgqyDpI6-95">
          <mxGeometry relative="1" as="geometry">
            <mxPoint x="530" y="395" as="targetPoint" />
          </mxGeometry>
        </mxCell>
        <mxCell id="2b4e8129b02d487f-4" value="仿真任务" style="swimlane;html=1;startSize=20;horizontal=0;" parent="2b4e8129b02d487f-1" vertex="1">
          <mxGeometry y="320" width="680" height="150" as="geometry" />
        </mxCell>
        <mxCell id="sPJk-Jh3IWkGkgqyDpI6-63" value="" style="edgeStyle=orthogonalEdgeStyle;rounded=0;orthogonalLoop=1;jettySize=auto;html=1;" edge="1" parent="2b4e8129b02d487f-4" source="sPJk-Jh3IWkGkgqyDpI6-60" target="sPJk-Jh3IWkGkgqyDpI6-61">
          <mxGeometry relative="1" as="geometry" />
        </mxCell>
        <mxCell id="sPJk-Jh3IWkGkgqyDpI6-60" value="任务列表" style="rounded=1;whiteSpace=wrap;html=1;shadow=0;labelBackgroundColor=none;strokeWidth=1;fontFamily=Verdana;fontSize=8;align=center;" vertex="1" parent="2b4e8129b02d487f-4">
          <mxGeometry x="40" y="56.5" width="70" height="37" as="geometry" />
        </mxCell>
        <mxCell id="sPJk-Jh3IWkGkgqyDpI6-65" value="" style="edgeStyle=orthogonalEdgeStyle;rounded=0;orthogonalLoop=1;jettySize=auto;html=1;startArrow=none;" edge="1" parent="2b4e8129b02d487f-4" source="sPJk-Jh3IWkGkgqyDpI6-66" target="sPJk-Jh3IWkGkgqyDpI6-64">
          <mxGeometry relative="1" as="geometry" />
        </mxCell>
        <mxCell id="sPJk-Jh3IWkGkgqyDpI6-69" value="Yes" style="edgeLabel;html=1;align=center;verticalAlign=middle;resizable=0;points=[];" vertex="1" connectable="0" parent="sPJk-Jh3IWkGkgqyDpI6-65">
          <mxGeometry x="0.2394" y="-4" relative="1" as="geometry">
            <mxPoint x="3" y="-4" as="offset" />
          </mxGeometry>
        </mxCell>
        <mxCell id="sPJk-Jh3IWkGkgqyDpI6-61" value="任务策略" style="rounded=1;whiteSpace=wrap;html=1;shadow=0;labelBackgroundColor=none;strokeWidth=1;fontFamily=Verdana;fontSize=8;align=center;" vertex="1" parent="2b4e8129b02d487f-4">
          <mxGeometry x="140" y="56.5" width="70" height="37" as="geometry" />
        </mxCell>
        <mxCell id="sPJk-Jh3IWkGkgqyDpI6-77" value="" style="edgeStyle=orthogonalEdgeStyle;rounded=0;orthogonalLoop=1;jettySize=auto;html=1;" edge="1" parent="2b4e8129b02d487f-4" source="sPJk-Jh3IWkGkgqyDpI6-64" target="sPJk-Jh3IWkGkgqyDpI6-76">
          <mxGeometry relative="1" as="geometry" />
        </mxCell>
        <mxCell id="sPJk-Jh3IWkGkgqyDpI6-64" value="组装参数" style="rounded=1;whiteSpace=wrap;html=1;shadow=0;labelBackgroundColor=none;strokeWidth=1;fontFamily=Verdana;fontSize=8;align=center;" vertex="1" parent="2b4e8129b02d487f-4">
          <mxGeometry x="440" y="56.5" width="70" height="37" as="geometry" />
        </mxCell>
        <mxCell id="sPJk-Jh3IWkGkgqyDpI6-75" value="" style="endArrow=classic;html=1;rounded=0;exitX=0.5;exitY=1;exitDx=0;exitDy=0;entryX=0.5;entryY=1;entryDx=0;entryDy=0;exitPerimeter=0;" edge="1" parent="2b4e8129b02d487f-4" source="sPJk-Jh3IWkGkgqyDpI6-66" target="sPJk-Jh3IWkGkgqyDpI6-60">
          <mxGeometry width="50" height="50" relative="1" as="geometry">
            <mxPoint x="140" y="126.5" as="sourcePoint" />
            <mxPoint x="100" y="98" as="targetPoint" />
            <Array as="points">
              <mxPoint x="315" y="127" />
              <mxPoint x="75" y="127" />
            </Array>
          </mxGeometry>
        </mxCell>
        <mxCell id="sPJk-Jh3IWkGkgqyDpI6-113" value="No" style="edgeLabel;html=1;align=center;verticalAlign=middle;resizable=0;points=[];" vertex="1" connectable="0" parent="sPJk-Jh3IWkGkgqyDpI6-75">
          <mxGeometry x="-0.1948" y="-2" relative="1" as="geometry">
            <mxPoint as="offset" />
          </mxGeometry>
        </mxCell>
        <mxCell id="sPJk-Jh3IWkGkgqyDpI6-76" value="分配任务" style="rounded=1;whiteSpace=wrap;html=1;shadow=0;labelBackgroundColor=none;strokeWidth=1;fontFamily=Verdana;fontSize=8;align=center;" vertex="1" parent="2b4e8129b02d487f-4">
          <mxGeometry x="530" y="56.5" width="70" height="37" as="geometry" />
        </mxCell>
        <mxCell id="sPJk-Jh3IWkGkgqyDpI6-66" value="" style="strokeWidth=1;html=1;shape=mxgraph.flowchart.decision;whiteSpace=wrap;rounded=1;shadow=0;labelBackgroundColor=none;fontFamily=Verdana;fontSize=8;align=center;" vertex="1" parent="2b4e8129b02d487f-4">
          <mxGeometry x="300" y="59.999999999999886" width="30" height="30" as="geometry" />
        </mxCell>
        <mxCell id="sPJk-Jh3IWkGkgqyDpI6-110" value="" style="edgeStyle=orthogonalEdgeStyle;rounded=0;orthogonalLoop=1;jettySize=auto;html=1;endArrow=none;" edge="1" parent="2b4e8129b02d487f-4" source="sPJk-Jh3IWkGkgqyDpI6-61" target="sPJk-Jh3IWkGkgqyDpI6-66">
          <mxGeometry relative="1" as="geometry">
            <mxPoint x="390" y="467" as="sourcePoint" />
            <mxPoint x="620" y="467" as="targetPoint" />
          </mxGeometry>
        </mxCell>
        <mxCell id="sPJk-Jh3IWkGkgqyDpI6-80" value="任务执行" style="swimlane;html=1;startSize=20;horizontal=0;" vertex="1" parent="2b4e8129b02d487f-1">
          <mxGeometry y="470" width="680" height="150" as="geometry" />
        </mxCell>
        <mxCell id="sPJk-Jh3IWkGkgqyDpI6-109" value="" style="edgeStyle=orthogonalEdgeStyle;rounded=0;orthogonalLoop=1;jettySize=auto;html=1;" edge="1" parent="sPJk-Jh3IWkGkgqyDpI6-80" source="sPJk-Jh3IWkGkgqyDpI6-82" target="sPJk-Jh3IWkGkgqyDpI6-98">
          <mxGeometry relative="1" as="geometry" />
        </mxCell>
        <mxCell id="sPJk-Jh3IWkGkgqyDpI6-82" value="任务结束" style="rounded=1;whiteSpace=wrap;html=1;shadow=0;labelBackgroundColor=none;strokeWidth=1;fontFamily=Verdana;fontSize=8;align=center;" vertex="1" parent="sPJk-Jh3IWkGkgqyDpI6-80">
          <mxGeometry x="140" y="56.5" width="70" height="37" as="geometry" />
        </mxCell>
        <mxCell id="sPJk-Jh3IWkGkgqyDpI6-108" value="" style="edgeStyle=orthogonalEdgeStyle;rounded=0;orthogonalLoop=1;jettySize=auto;html=1;" edge="1" parent="sPJk-Jh3IWkGkgqyDpI6-80" source="sPJk-Jh3IWkGkgqyDpI6-87" target="sPJk-Jh3IWkGkgqyDpI6-82">
          <mxGeometry relative="1" as="geometry" />
        </mxCell>
        <mxCell id="sPJk-Jh3IWkGkgqyDpI6-87" value="数据回传" style="rounded=1;whiteSpace=wrap;html=1;shadow=0;labelBackgroundColor=none;strokeWidth=1;fontFamily=Verdana;fontSize=8;align=center;" vertex="1" parent="sPJk-Jh3IWkGkgqyDpI6-80">
          <mxGeometry x="243" y="56.5" width="70" height="37" as="geometry" />
        </mxCell>
        <mxCell id="sPJk-Jh3IWkGkgqyDpI6-96" value="" style="edgeStyle=orthogonalEdgeStyle;rounded=0;orthogonalLoop=1;jettySize=auto;html=1;startArrow=none;entryX=1;entryY=0.5;entryDx=0;entryDy=0;" edge="1" parent="sPJk-Jh3IWkGkgqyDpI6-80" source="sPJk-Jh3IWkGkgqyDpI6-100" target="sPJk-Jh3IWkGkgqyDpI6-87">
          <mxGeometry relative="1" as="geometry">
            <mxPoint x="380" y="75" as="targetPoint" />
          </mxGeometry>
        </mxCell>
        <mxCell id="sPJk-Jh3IWkGkgqyDpI6-106" value="sucess" style="edgeLabel;html=1;align=center;verticalAlign=middle;resizable=0;points=[];" vertex="1" connectable="0" parent="sPJk-Jh3IWkGkgqyDpI6-96">
          <mxGeometry x="0.2707" y="4" relative="1" as="geometry">
            <mxPoint x="28" y="-4" as="offset" />
          </mxGeometry>
        </mxCell>
        <mxCell id="sPJk-Jh3IWkGkgqyDpI6-95" value="执行任务" style="rounded=1;whiteSpace=wrap;html=1;shadow=0;labelBackgroundColor=none;strokeWidth=1;fontFamily=Verdana;fontSize=8;align=center;" vertex="1" parent="sPJk-Jh3IWkGkgqyDpI6-80">
          <mxGeometry x="530" y="56.5" width="70" height="37" as="geometry" />
        </mxCell>
        <mxCell id="sPJk-Jh3IWkGkgqyDpI6-98" value="end" style="ellipse;whiteSpace=wrap;html=1;rounded=0;shadow=0;labelBackgroundColor=none;strokeWidth=2;fontFamily=Verdana;fontSize=8;align=center;" vertex="1" parent="sPJk-Jh3IWkGkgqyDpI6-80">
          <mxGeometry x="60" y="59.5" width="30" height="30" as="geometry" />
        </mxCell>
        <mxCell id="sPJk-Jh3IWkGkgqyDpI6-100" value="" style="strokeWidth=1;html=1;shape=mxgraph.flowchart.decision;whiteSpace=wrap;rounded=1;shadow=0;labelBackgroundColor=none;fontFamily=Verdana;fontSize=8;align=center;" vertex="1" parent="sPJk-Jh3IWkGkgqyDpI6-80">
          <mxGeometry x="470" y="59.499999999999886" width="30" height="30" as="geometry" />
        </mxCell>
        <mxCell id="sPJk-Jh3IWkGkgqyDpI6-102" value="" style="edgeStyle=orthogonalEdgeStyle;rounded=0;orthogonalLoop=1;jettySize=auto;html=1;endArrow=none;" edge="1" parent="sPJk-Jh3IWkGkgqyDpI6-80" source="sPJk-Jh3IWkGkgqyDpI6-95" target="sPJk-Jh3IWkGkgqyDpI6-100">
          <mxGeometry relative="1" as="geometry">
            <mxPoint x="710" y="617" as="sourcePoint" />
            <mxPoint x="610" y="617" as="targetPoint" />
          </mxGeometry>
        </mxCell>
        <mxCell id="sPJk-Jh3IWkGkgqyDpI6-104" value="" style="endArrow=classic;html=1;rounded=0;exitX=0.5;exitY=1;exitDx=0;exitDy=0;exitPerimeter=0;entryX=0.5;entryY=1;entryDx=0;entryDy=0;" edge="1" parent="sPJk-Jh3IWkGkgqyDpI6-80" source="sPJk-Jh3IWkGkgqyDpI6-100" target="sPJk-Jh3IWkGkgqyDpI6-87">
          <mxGeometry width="50" height="50" relative="1" as="geometry">
            <mxPoint x="550" y="158" as="sourcePoint" />
            <mxPoint x="485" y="116" as="targetPoint" />
            <Array as="points">
              <mxPoint x="485" y="128" />
              <mxPoint x="278" y="128" />
            </Array>
          </mxGeometry>
        </mxCell>
        <mxCell id="sPJk-Jh3IWkGkgqyDpI6-105" value="Error" style="edgeLabel;html=1;align=center;verticalAlign=middle;resizable=0;points=[];" vertex="1" connectable="0" parent="sPJk-Jh3IWkGkgqyDpI6-104">
          <mxGeometry x="-0.4237" y="3" relative="1" as="geometry">
            <mxPoint as="offset" />
          </mxGeometry>
        </mxCell>
      </root>
    </mxGraphModel>
  </diagram>
</mxfile>
